<?xml version="1.0" standalone="no"?><!DOCTYPE svg PUBLIC "-//W3C//DTD SVG 1.1//EN" "http://www.w3.org/Graphics/SVG/1.1/DTD/svg11.dtd"><svg t="1648886375418" class="icon" viewBox="0 0 1024 1024" version="1.1" xmlns="http://www.w3.org/2000/svg" p-id="1266" data-spm-anchor-id="a313x.7781069.0.i0" xmlns:xlink="http://www.w3.org/1999/xlink" width="200" height="200"><defs><style type="text/css">@font-face { font-family: feedback-iconfont; src: url("//at.alicdn.com/t/font_1031158_u69w8yhxdu.woff2?t=1630033759944") format("woff2"), url("//at.alicdn.com/t/font_1031158_u69w8yhxdu.woff?t=1630033759944") format("woff"), url("//at.alicdn.com/t/font_1031158_u69w8yhxdu.ttf?t=1630033759944") format("truetype"); }
</style></defs><path d="M823.5 169.7v687.4h-623V169.7h623m10.7-70.1l-644.3 0.1c-32.8 0-59.4 26.5-59.4 59.3v708.7c0 15.7 6.3 30.8 17.4 42 11.1 11.2 26.2 17.4 42 17.4h644.4c15.7 0 30.8-6.3 41.9-17.4 11.1-11.1 17.3-26.2 17.3-42V158.9c0-32.7-26.5-59.3-59.3-59.3z" fill="#91B1D5" p-id="1267"></path><path d="M666.6 461.1h-306c-16.5 0-30-13.5-30-30v-18c0-16.5 13.5-30 30-30h306c16.5 0 30 13.5 30 30v18c0 16.5-13.5 30-30 30zM666.6 639.6h-306c-16.5 0-30-13.5-30-30v-18c0-16.5 13.5-30 30-30h306c16.5 0 30 13.5 30 30v18c0 16.5-13.5 30-30 30z" fill="#91B1D5" p-id="1268"></path></svg>