<?xml version="1.0" standalone="no"?><!DOCTYPE svg PUBLIC "-//W3C//DTD SVG 1.1//EN" "http://www.w3.org/Graphics/SVG/1.1/DTD/svg11.dtd"><svg t="1648042190709" class="icon" viewBox="0 0 1024 1024" version="1.1" xmlns="http://www.w3.org/2000/svg" p-id="6184" width="32" height="32" xmlns:xlink="http://www.w3.org/1999/xlink"><defs><style type="text/css">@font-face { font-family: feedback-iconfont; src: url("//at.alicdn.com/t/font_1031158_u69w8yhxdu.woff2?t=1630033759944") format("woff2"), url("//at.alicdn.com/t/font_1031158_u69w8yhxdu.woff?t=1630033759944") format("woff"), url("//at.alicdn.com/t/font_1031158_u69w8yhxdu.ttf?t=1630033759944") format("truetype"); }
</style></defs><path d="M883.2 328s60.8 36.8 41.6 81.6c-19.2 44.8-216 480-216 480s-35.2 92.8-176 65.6c-140.8-27.2-336-163.2-336-163.2s-24-44.8-9.6-70.4 8-4.8 8-4.8L576 880s65.6-12.8 70.4-46.4 236.8-505.6 236.8-505.6z" fill="#FFD2B0" p-id="6185"></path><path d="M574.4 896c-12.8 0-27.2-3.2-38.4-8l-345.6-156.8c-22.4-11.2-41.6-28.8-49.6-52.8s-8-49.6 1.6-73.6l232-512c11.2-22.4 28.8-41.6 52.8-49.6 24-9.6 49.6-8 73.6 1.6l345.6 156.8c22.4 11.2 41.6 28.8 49.6 52.8s8 49.6-1.6 73.6l-232 512c-11.2 22.4-28.8 41.6-52.8 49.6-12.8 3.2-24 6.4-35.2 6.4zM460.8 68.8c-8 0-16 1.6-22.4 4.8-16 6.4-28.8 17.6-35.2 33.6l-232 512c-14.4 32 0 68.8 32 83.2l345.6 156.8c16 6.4 32 8 48 1.6s28.8-17.6 35.2-33.6l232-512c6.4-16 8-32 1.6-48S848 238.4 832 232L486.4 73.6c-8-3.2-16-4.8-25.6-4.8z" fill="#4C4C4C" p-id="6186"></path><path d="M582.4 987.2c-22.4 0-43.2-4.8-64-14.4l-291.2-131.2c-38.4-17.6-60.8-59.2-54.4-100.8 1.6-8 9.6-14.4 17.6-12.8 8 1.6 14.4 9.6 12.8 17.6-4.8 28.8 11.2 56 36.8 67.2L531.2 944c30.4 12.8 64 14.4 94.4 3.2 30.4-11.2 56-35.2 68.8-64l208-457.6c14.4-30.4 6.4-60.8-19.2-76.8-8-4.8-9.6-14.4-4.8-22.4 4.8-8 14.4-9.6 22.4-4.8 40 24 52.8 70.4 32 116.8L724.8 896c-17.6 36.8-48 65.6-86.4 81.6-19.2 6.4-36.8 9.6-56 9.6zM425.6 168h-8c-14.4-1.6-32-6.4-51.2-14.4-36.8-16-73.6-41.6-62.4-65.6 3.2-9.6 14.4-19.2 43.2-16 8 1.6 14.4 9.6 14.4 17.6-1.6 8-9.6 14.4-17.6 14.4 8 6.4 19.2 12.8 35.2 20.8 17.6 6.4 30.4 11.2 40 11.2-3.2-6.4-3.2-14.4 1.6-20.8 6.4-6.4 16-6.4 22.4-1.6 17.6 16 17.6 28.8 14.4 36.8-3.2 9.6-11.2 17.6-32 17.6z m1.6-22.4zM385.6 243.2c-17.6 0-38.4-6.4-59.2-14.4-36.8-16-73.6-41.6-62.4-65.6 3.2-9.6 14.4-19.2 43.2-16 8 1.6 14.4 9.6 14.4 17.6-1.6 8-9.6 14.4-17.6 14.4 8 6.4 19.2 12.8 35.2 20.8 17.6 6.4 30.4 11.2 40 11.2-4.8-6.4-3.2-14.4 1.6-19.2 6.4-6.4 16-6.4 22.4-1.6 17.6 16 17.6 28.8 14.4 36.8-4.8 11.2-16 16-32 16z m3.2-24zM347.2 323.2h-8c-14.4-1.6-32-6.4-51.2-14.4-36.8-16-73.6-41.6-62.4-65.6 3.2-9.6 14.4-19.2 43.2-16 8 1.6 14.4 9.6 14.4 17.6-1.6 8-9.6 14.4-17.6 14.4 8 6.4 19.2 12.8 35.2 20.8 17.6 6.4 30.4 11.2 40 11.2-4.8-6.4-3.2-14.4 1.6-19.2 6.4-6.4 16-6.4 22.4-1.6 17.6 16 17.6 28.8 14.4 36.8-3.2 6.4-12.8 16-32 16z m1.6-24zM312 409.6c-17.6 0-38.4-6.4-59.2-14.4-36.8-16-73.6-41.6-62.4-65.6 3.2-9.6 14.4-19.2 43.2-16 8 1.6 14.4 9.6 14.4 17.6-1.6 8-9.6 14.4-17.6 14.4 8 6.4 19.2 12.8 35.2 20.8 17.6 6.4 30.4 11.2 40 11.2-4.8-6.4-3.2-14.4 1.6-19.2 6.4-6.4 16-6.4 22.4-1.6 17.6 16 17.6 28.8 14.4 36.8-4.8 11.2-17.6 16-32 16z m1.6-24zM273.6 481.6h-8c-14.4-1.6-32-6.4-51.2-14.4-36.8-16-73.6-41.6-62.4-65.6 3.2-9.6 14.4-19.2 43.2-16 8 1.6 14.4 9.6 14.4 17.6-1.6 8-9.6 14.4-17.6 14.4 8 6.4 19.2 12.8 35.2 20.8 17.6 6.4 30.4 11.2 40 11.2-4.8-6.4-3.2-14.4 1.6-19.2 6.4-6.4 16-6.4 22.4-1.6 17.6 16 17.6 28.8 14.4 36.8-3.2 8-11.2 16-32 16z m1.6-22.4zM241.6 561.6h-8c-14.4-1.6-32-6.4-51.2-14.4-36.8-16-73.6-41.6-62.4-65.6 3.2-9.6 14.4-19.2 43.2-16 8 1.6 14.4 9.6 14.4 17.6s-9.6 14.4-17.6 14.4c8 6.4 19.2 12.8 35.2 20.8 17.6 6.4 30.4 11.2 40 11.2-4.8-6.4-3.2-14.4 1.6-19.2 6.4-6.4 16-6.4 22.4-1.6 17.6 16 17.6 28.8 14.4 36.8-3.2 8-11.2 16-32 16z m3.2-22.4zM204.8 641.6c-17.6 0-38.4-6.4-59.2-14.4-17.6-6.4-33.6-16-44.8-25.6-20.8-17.6-20.8-32-16-40 3.2-9.6 14.4-19.2 43.2-16 8 1.6 14.4 9.6 14.4 17.6-1.6 8-9.6 14.4-17.6 14.4 8 6.4 19.2 12.8 35.2 20.8 17.6 6.4 30.4 11.2 40 11.2-4.8-6.4-3.2-14.4 1.6-19.2 6.4-6.4 16-6.4 22.4-1.6 17.6 16 17.6 28.8 14.4 36.8-6.4 12.8-17.6 16-33.6 16z m3.2-22.4z" fill="#4C4C4C" p-id="6187"></path></svg>